<svg xmlns="http://www.w3.org/2000/svg" viewBox="0 0 227.3 227.3">
  <g transform="translate(0 -1.1)">
    <path d="M0,1.1H227.3V228.4H0Z" fill="none"/>
    <path d="M70.9,10.3a5.127,5.127,0,0,0-3.4,1.4,4.65,4.65,0,0,0,0,6.7L80,30.9A56.853,56.853,0,0,0,56.7,76.8H170.6a56.853,56.853,0,0,0-23.3-45.9l12.4-12.4a4.738,4.738,0,0,0-6.7-6.7l-14,14a56.341,56.341,0,0,0-50.6,0L74.3,11.7A4.762,4.762,0,0,0,70.9,10.3Zm14.3,38h9.5v9.5H85.2Zm47.5,0h9.5v9.5h-9.5Zm-95,38a9.56,9.56,0,0,0-9.5,9.5v57a9.5,9.5,0,0,0,19,0v-57A9.5,9.5,0,0,0,37.7,86.3Zm19,0v76a9.56,9.56,0,0,0,9.5,9.5h9.5V205a14.2,14.2,0,0,0,28.4,0V171.8h19V205a14.2,14.2,0,1,0,28.4,0V171.8H161a9.56,9.56,0,0,0,9.5-9.5v-76Zm132.9,0a9.56,9.56,0,0,0-9.5,9.5v57a9.5,9.5,0,0,0,19,0v-57A9.433,9.433,0,0,0,189.6,86.3Z" fill="#fff"/>
  </g>
</svg>
