<svg xmlns="http://www.w3.org/2000/svg" viewBox="0 0 227.3 227.3">
  <g transform="translate(-262.3)">
    <path d="M262.3,0H489.6V227.3H262.3Z" fill="none"/>
    <path d="M462.3,159.6c-4.7,10.5-7,15.1-13,24.4-8.5,12.9-20.4,29-35.2,29.1-13.2.1-16.5-8.6-34.4-8.4-17.8.1-21.6,8.6-34.7,8.5-14.8-.1-26.1-14.6-34.6-27.5-23.7-36.1-26.2-78.5-11.6-101,10.4-16,26.8-25.4,42.2-25.4,15.7,0,25.6,8.6,38.5,8.6,12.6,0,20.3-8.6,38.4-8.6,13.7,0,28.2,7.5,38.6,20.4C422.5,98.2,428,146.7,462.3,159.6ZM404,44.8c6.6-8.5,11.6-20.4,9.8-32.6-10.8.7-23.4,7.6-30.7,16.5-6.7,8.1-12.2,20.2-10,31.8C384.8,60.9,397,53.9,404,44.8Z" fill="#fff"/>
  </g>
</svg>
