<svg xmlns="http://www.w3.org/2000/svg" viewBox="0 0 227.333 227.333">
  <defs>
    <linearGradient id="linear-gradient" x1="0.5" x2="0.5" y2="1" gradientUnits="objectBoundingBox">
      <stop offset="0" stop-color="#ffc88d"/>
      <stop offset="1" stop-color="#bc823c"/>
    </linearGradient>
    <linearGradient id="linear-gradient-2" x1="0.5" x2="0.5" y2="1" gradientUnits="objectBoundingBox">
      <stop offset="0" stop-color="#db2c23"/>
      <stop offset="1" stop-color="#440d08"/>
    </linearGradient>
  </defs>
  <g transform="translate(-612.794 -1336.911)">
    <path d="M612.794,1336.911H840.127v227.333H612.794Z" fill="none"/>
    <g>
      <path d="M726.461,1345.307a203.381,203.381,0,0,0-84.566,18.3v123.911a52.517,52.517,0,0,0,22.226,39.659c22.152,15.746,62.34,28.676,62.34,28.676s40.188-12.93,62.34-28.676a52.518,52.518,0,0,0,22.225-39.659V1363.6a203.378,203.378,0,0,0-84.565-18.3Z" fill="url(#linear-gradient)"/>
      <path d="M726.461,1355.805a192.1,192.1,0,0,1,74.068,14.677v116.946a41.9,41.9,0,0,1-17.81,31.188c-17.064,12.129-46.532,22.812-56.258,26.157-9.73-3.347-39.2-14.028-56.258-26.157a41.9,41.9,0,0,1-17.81-31.186V1370.481a192.114,192.114,0,0,1,74.068-14.676" fill="url(#linear-gradient-2)"/>
      <g>
        <path d="M667.142,1491.089h-2.736v-7.416h4.037l-1.535-2.855h4.57l1.535,2.855h4.036v-3.292h4.271v3.292h4.036l1.5-2.855h4.571l-1.528,2.855h.369a3.6,3.6,0,0,1,2.619,1.051,3.834,3.834,0,0,1,1.075,2.875v3.49h-3.169v6.9a4.461,4.461,0,0,1-.893,2.915,2.954,2.954,0,0,1-2.414,1.091h-.529v2.062a1.367,1.367,0,0,0,.3.912.956.956,0,0,0,.767.357h5l-1.468,3.927h-5.938a3.135,3.135,0,0,1-1.435-.338,3.688,3.688,0,0,1-1.167-.932,4.454,4.454,0,0,1-.784-1.388,5.02,5.02,0,0,1-.283-1.7v-2.9h-7.106l-3.736,7.258h-4.905l3.67-7.258h-2.735Zm22.184-2.7a1.308,1.308,0,0,0-.3-.872.922.922,0,0,0-.734-.357H669.043v3.371h20.283Zm-2.8,5.354H671.345v5.036H685.49a.925.925,0,0,0,.733-.356,1.366,1.366,0,0,0,.3-.913Z" fill="#ffc88d"/>
        <path d="M708.275,1509.054H695.164v-3.689H696v-16.854h3.937v16.854h1.334v-20.978h-5.838V1480.7h13.044v3.689h-2.936v7.891h2.936v3.689h-2.936v9.4h2.736Zm16.213-23.517.067.039a43.62,43.62,0,0,1-1.852,8.011,33.559,33.559,0,0,1-3.086,6.7,18.476,18.476,0,0,0,1.885,2,13.118,13.118,0,0,0,2.152,1.607v5.076a21.908,21.908,0,0,1-6.539-5.315,22.022,22.022,0,0,1-6.772,5.315v-5.037a13.409,13.409,0,0,0,2.269-1.606,19.045,19.045,0,0,0,2.035-2.082,33.219,33.219,0,0,1-2.853-6.187,39.769,39.769,0,0,1-1.718-7.139h3.937a29.6,29.6,0,0,0,1.167,4.938,31.878,31.878,0,0,0,1.969,4.7,28.764,28.764,0,0,0,2.168-5.116,33.926,33.926,0,0,0,1.268-5.672H709.476l1.935-5.2h4.837l-.5,1.348h8.74Z" fill="#ffc88d"/>
        <path d="M725.922,1482.8h4.471v-2.261l3.769-.04v2.3h4.471v3.925h-4.471v22.209h-3.769v-22.209h-4.471Zm3.17,25.976h-3.036l.567-20.028h3Zm5.7-20.028h3.036l.534,20.028H735.33Zm16.647,20.3a2.255,2.255,0,0,1-1.768-.852,3.141,3.141,0,0,1-.734-2.122V1484.7H743.7v20.106l-.835,4.244h-4.136l.834-4.085v-24.151l2.068-.04,2.069.04,9.374-.04v23.555a.852.852,0,0,0,.217.6.677.677,0,0,0,.517.237h1.368l-.935,3.887h-2.8Z" fill="#ffc88d"/>
        <path d="M756.547,1509.133l11.509-10.39H756.547v-3.927H768.89v-5.71H757.648v-3.926h5.137l-1.768-4.719h4.837l1.769,4.719h7.172l1.768-4.719H781.4l-1.769,4.719h5.138v3.926H774.228v5.71h11.643v3.927H774.228v.714l-1.635,1.428h3.1l10.275,8.248h-7.44l-7.806-6.583-7.339,6.583Z" fill="#ffc88d"/>
      </g>
      <path d="M730.811,1465.875v.012h.911a2.151,2.151,0,0,1,0,4.3H716.85a2.151,2.151,0,1,1,0-4.3h.838v-.012h-.838a2.151,2.151,0,1,1,0-4.3h.838v-20.927a68.213,68.213,0,0,0,13.123-3.041v23.968h.911a2.151,2.151,0,0,1,0,4.3Zm-23.766-73.108a116.912,116.912,0,0,0,9.3,3.973,3.921,3.921,0,0,0,1.348-.251v29.551a69.659,69.659,0,0,0,13.123-2.116v-32.907s11.008-4.228,13.705-15.309c2.77-2.406,2.333-4.666,1.312-5.905s-3.353.073-2.77,1.968c0,0-7.071,7.8-12.247,8.967v-4.623a2.148,2.148,0,0,0-.061-4.3h-2.819a4.786,4.786,0,0,0-2.953-5.37c-1.069-3.937-5.2-2.673-5.394-1.313s1.7,1.9,1.7,1.9-1.167.826-.972,1.6,1.312,1.069,1.312,1.069.875,1.409,0,2.114h-3.8a2.146,2.146,0,0,0-.134,4.288v1.791c-.012,0-.024,0-.036,0a2.661,2.661,0,0,0,0,5.322c.012,0,.024,0,.036,0v2.233a4.944,4.944,0,0,1-7.326-.625,17.715,17.715,0,0,0-3.317,7.946Zm-7.533,28.869c-1.8-5.019,6.551-10.929,17.046-15.592v-3.414c-.828.357-1.511.668-1.98.9-6.027,3.013-27.314,12.928-26.05,25.078s25.758,14.678,46.657,5.929,34.312-23.425,41.116-38.3C751.028,1428.61,703.788,1433.567,699.512,1421.636Zm32.465-21.124c9.732-2.732,18.134-3.619,19.246-1.062,2.916,6.707-17.691,11.858-17.691,11.858,15.164,3.013,35.382-10.3,30.327-17.788-3.12-4.62-18.866-.869-31.882,3.387Z" fill="#ffc88d"/>
    </g>
  </g>
</svg>
