<svg xmlns="http://www.w3.org/2000/svg" viewBox="0 0 227.333 227.334">
  <defs>
    <linearGradient id="linear-gradient" x1="0.5" x2="0.5" y2="1" gradientUnits="objectBoundingBox">
      <stop offset="0" stop-color="#ffc88d"/>
      <stop offset="1" stop-color="#bc823c"/>
    </linearGradient>
    <linearGradient id="linear-gradient-2" x1="0.5" x2="0.5" y2="1" gradientUnits="objectBoundingBox">
      <stop offset="0" stop-color="#80e4ff"/>
      <stop offset="1" stop-color="#0b7fce"/>
    </linearGradient>
  </defs>
  <g transform="translate(-873.474 -1484.27)">
    <path d="M873.474,1484.27h227.333V1711.6H873.474Z" fill="none"/>
    <g>
      <path d="M987.141,1492.666a203.393,203.393,0,0,0-84.566,18.3v123.912a52.516,52.516,0,0,0,22.225,39.658c22.153,15.746,62.341,28.676,62.341,28.676s40.187-12.93,62.34-28.676a52.516,52.516,0,0,0,22.225-39.658V1510.963a203.378,203.378,0,0,0-84.565-18.3Z" fill="url(#linear-gradient)"/>
      <path d="M987.141,1503.164a192.1,192.1,0,0,1,74.067,14.677v116.946a41.9,41.9,0,0,1-17.809,31.188c-17.064,12.13-46.532,22.812-56.258,26.158-9.73-3.347-39.2-14.029-56.258-26.158a41.9,41.9,0,0,1-17.81-31.186V1517.841a192.1,192.1,0,0,1,74.068-14.677" fill="url(#linear-gradient-2)"/>
      <g>
        <path d="M943.856,1616.625H955.8v3.054H943.856v.912H953.93v3.212a5.045,5.045,0,0,1-.283,1.705,4.478,4.478,0,0,1-.784,1.389,3.705,3.705,0,0,1-1.168.932,3.131,3.131,0,0,1-1.434.338h-6.4v.753H953.93v3.966H955.8v3.053H953.93a4.765,4.765,0,0,1-1.184,2.8,3.217,3.217,0,0,1-2.485,1.131h-6.4a4.621,4.621,0,0,1-.3,1.685,4.74,4.74,0,0,1-.791,1.348,3.637,3.637,0,0,1-1.159.913,3.114,3.114,0,0,1-1.411.336h-4.711l1.268-3.49h1.4a1,1,0,0,0,.634-.207,1.055,1.055,0,0,0,.367-.585H928.743v-3.055h10.476v-.872H926.442v-3.053h12.777v-.913H928.743v-3.053h10.476v-.753H928.743v-7.576h10.476v-.912H926.442v-3.054h12.777v-1.11h4.637Zm-4.637,8.487v-1.467h-5.838v1.467Zm4.637-1.467v1.467h4.4a.925.925,0,0,0,.734-.357,1.309,1.309,0,0,0,.3-.872v-.238Zm0,8.328v.913h5.838v-.913Zm4.771,4.838a.9.9,0,0,0,.633-.246,1.272,1.272,0,0,0,.367-.626h-5.771v.872Z" fill="#fff"/>
        <path d="M957.434,1640.223h7.339v-24.708h4.636v24.708h4.8v-24.708h4.636v24.708h7.34v3.925H957.434Zm4.2-21.1,2.469,18.52h-4l-2.469-18.52Zm24.22.515-2.269,18.005h-4l2.268-18.005Z" fill="#fff"/>
        <path d="M1000.068,1639.786H987.825v-3.926h12.243V1633.6H988.559v-15.387h4.17l-.934-2.657h4.774l.934,2.657h10.784l.934-2.657h4.807l-.94,2.657h3.326v11.025a5.005,5.005,0,0,1-.284,1.7,4.464,4.464,0,0,1-.786,1.389,3.716,3.716,0,0,1-1.171.932,3.088,3.088,0,0,1-1.4.336h-7.863v2.261h12.243v3.926h-12.243v4.323h-4.837Zm0-18.521H993.2v2.658h6.872Zm0,9.281v-2.7H993.2v2.7Zm4.837-6.623h6.872v-2.658h-6.872Zm5.8,6.623a.958.958,0,0,0,.767-.357,1.311,1.311,0,0,0,.3-.873v-1.467h-6.872v2.7Z" fill="#fff"/>
        <path d="M1026.7,1615.475l-2.3,6.663h1.225v21.971h-4.269v-17.886h-2.8l3.7-10.748Zm17.438,24.866h3.7v3.807h-20.116v-3.807h3.8l-2.035-16.736h4.27l2.035,16.736h4.07l2.035-16.736h4.271Zm-15.379-23.359h6.271l-.534-1.388h5.472l.5,1.388h6.539v3.807h-18.248Z" fill="#fff"/>
      </g>
      <g>
        <path d="M1061.208,1594.8v-37.5c-4.9-2.669-10.417-5-14.874-5.095-5.922-5.833-14.24-5.031-14.24-5.031s-5.217-7-18.4-8.6v-3.937h-5.287v-1.215H1005.8v1.434h-1.5v-1.434h-1.1v1.361h-1.88v-1.361h-1.316v1.288h-1.316v-1.288h-1.832v6.537l-5.57,6.2s-4.441-1.531-8.318,4.228c-4.512,3.864-9.588-1.045-9.588-1.045s-3.524-3.329-8.459.608c-4.512,3.572-5.076-.511-8.037,3.207-3.172,3.718-9.094.656-9.094.656s-4.229-2.77-7.613-.291a10.858,10.858,0,0,0-7.05-.146v-4.836h-4.746v1.944H927.1v-1.992h-4.465v2.065H920.78v-1.944h-3.348v1.956h-1.939v15.6h-2.42V1594.8" fill="#0d479b"/>
        <path d="M1001.24,1594.8s-11.092-4.082-15.415-8.359-14.1-7.582-21.055-6.61c-5.264-4.082-18.047-6.8-18.047-6.8s-10.339-10.109-21.995-2.527l-6.767-2.139v-15.358H931.4v2.625a6.42,6.42,0,0,0,4.371,1.118,24.944,24.944,0,0,1,3.242-.486s2.632,4.835,11.515,7.46,17.906,4.447,22.135,6.269,8.178,3.791,11.421,3.864,7.613,6.2,7.613,6.2,14.241,9.5,16.59,14.75" fill="#0dac67"/>
        <path d="M941.741,1554.269s1.786-.923,5.358,1.021,7.426,1.555,8.506,1.992,21.572,7.582,21.572,7.582,7.52,2.187,12.924,3.062,12.972,2.527,14.664,5.832,3.289,4.228,3.289,4.228a2.093,2.093,0,0,1-1.221,2.285c-1.6.923-3.995,2.624-6.674,0s-10.387-10.3-13.112-11.081-16.308-2.09-25.567-6.416-10.386-3.256-13.488-4.617A33.173,33.173,0,0,1,941.741,1554.269Z" fill="#fff"/>
        <path d="M1000.347,1544.743a71.555,71.555,0,0,0-3.666,9.04c-1.081,3.742-1.927,7.242-1.927,7.242s-.423.826,1.128,1.458,2.3,1.166,2.961-1.7,2.914-8.749,2.914-8.749S1003.449,1546.347,1000.347,1544.743Z" fill="#fff"/>
        <path d="M998.459,1539.446l-6.29,7.582-4.417,11.761s-.423,1.7.846,1.944,1.832.243,2.255-1.7S993.626,1548,993.626,1548l4.371-5.2S1001.272,1541.195,998.459,1539.446Z" fill="#fff"/>
        <path d="M1007.208,1540.9s.376,3.937,3.525,1.652c.846,1.7,3.76,1.75,4.841.34,1.222,1.361,2.444,3.111,3.572,3.208s3.525-2.138,3.525-2.138l.7-.778s-5.687-3.11-10.716-3.11S1007.208,1540.9,1007.208,1540.9Z" fill="#fff"/>
        <path d="M1008.289,1594.8c-2.349-5.249-16.59-14.75-16.59-14.75s-4.37-6.124-7.613-6.2-7.191-2.041-11.421-3.864-13.253-3.645-22.135-6.269-11.515-7.46-11.515-7.46a24.944,24.944,0,0,0-3.242.486,6.42,6.42,0,0,1-4.371-1.118v-2.625H917.961v15.358l6.767,2.139c11.656-7.582,21.995,2.527,21.995,2.527s12.783,2.722,18.047,6.8c6.956-.972,16.731,2.333,21.055,6.61s15.415,8.359,15.415,8.359" fill="#fff"/>
      </g>
    </g>
  </g>
</svg>
