<svg xmlns="http://www.w3.org/2000/svg" viewBox="0 0 227.334 227.334">
  <g transform="translate(480.646 -1231.64)">
    <path d="M-480.646,1231.64h227.334v227.334H-480.646Z" fill="none"/>
    <g>
      <path d="M-331,1426.185h-71.937s-30.126,7.934-27.553,15.76,63.521,2.573,63.521,2.573,60.948,5.253,63.521-2.573S-331,1426.185-331,1426.185Z" fill="#faab08"/>
      <path d="M-304.727,1329.376h0a78.99,78.99,0,0,0,1.278-14.2c0-39.1-28.439-70.805-63.521-70.805s-63.521,31.7-63.521,70.805a78.986,78.986,0,0,0,1.277,14.19l-.017.01s-28.724,59.822-21.219,78.476c2.562,6.369,9.773-3.01,18.16-18.123,1.649,30.5,30.262,54.789,65.32,54.789s63.652-24.269,65.319-54.758c8.379,15.095,15.583,24.457,18.143,18.092C-276,1389.2-304.727,1329.376-304.727,1329.376Z"/>
      <path d="M0,0H99.168a0,0,0,0,1,0,0V48.334A40.373,40.373,0,0,1,58.795,88.707H40.373A40.373,40.373,0,0,1,0,48.334V0A0,0,0,0,1,0,0Z" transform="translate(-416.554 1348.673)" fill="#fff"/>
      <ellipse cx="11.136" cy="16.363" rx="11.136" ry="16.363" transform="translate(-394.978 1269.071)" fill="#fff"/>
      <ellipse cx="4.614" cy="6.337" rx="4.614" ry="6.337" transform="translate(-384.686 1280.6)"/>
      <ellipse cx="11.136" cy="16.363" rx="11.136" ry="16.363" transform="translate(-361.248 1269.071)" fill="#fff"/>
      <path d="M-356.916,1288.741a1.443,1.443,0,0,1-1.1-.5,1.447,1.447,0,0,1,.151-2.041,13.254,13.254,0,0,1,8.715-3.378,12.749,12.749,0,0,1,6.333,1.7,1.448,1.448,0,0,1,.549,1.972,1.447,1.447,0,0,1-1.972.549,9.9,9.9,0,0,0-4.91-1.321,10.406,10.406,0,0,0-6.825,2.675A1.44,1.44,0,0,1-356.916,1288.741Z"/>
      <path d="M-366.97,1306.326s-38.649.643-38.649,8.148,38.649,12.329,38.649,12.329,38.649-4.825,38.649-12.329S-366.97,1306.326-366.97,1306.326Z" fill="#faab08"/>
      <path d="M-295.23,1351.292s-2.656-6.852-4.828-11.866-4.669-10.05-4.669-10.05c-71.285,18.976-124.5,0-124.5,0s-2.918,5.767-4.935,10.432c-2.2,5.084-4.788,12.053-4.788,12.053a230.047,230.047,0,0,0,31.995,7.467v30.513a55.845,55.845,0,0,0,13.911,1.93,55.293,55.293,0,0,0,13.91-1.93V1362.12C-330.391,1364.2-295.23,1351.292-295.23,1351.292Z" fill="#eb1924"/>
    </g>
  </g>
</svg>
