<svg xmlns="http://www.w3.org/2000/svg" viewBox="0 0 227.334 227.333">
  <g transform="translate(139.646 -1261.102)">
    <path d="M-139.646,1261.1H87.688v227.333H-139.646Z" fill="none"/>
    <g>
      <path d="M-89.987,1333.912c9.731,0,17.613-7.092,17.613-15.781s-7.882-15.806-17.613-15.806-17.609,7.1-17.609,15.806S-99.715,1333.912-89.987,1333.912Z" fill="#ff5622"/>
      <path d="M-104.6,1340.291l-11.058,17.051,20.469,12.763s13.629,6.97,7.162,20.048c-6.137,12.388-35.945,39.514-35.945,39.514l26.734,16.672c18.451-40.089,17.3-34.748,21.943-49.142,4.765-14.725,5.776-25.955-2.281-34.037C-87.993,1352.721-89.148,1351.753-104.6,1340.291Z" fill="#ff5622"/>
      <path d="M68.681,1335.817s-5.73-45.128-104.529-17.152c4.184-7.346,6.262-12.156,6.262-12.156l-24.7-6.9s-9.945,32.438-27.687,47.6c0,0,17.163,9.889,16.988,9.612a177.166,177.166,0,0,0,13.17-14.767c3.924-1.733,7.735-3.334,11.444-4.852-4.545,8.231-11.936,20.517-19.315,28.28l10.394,9.1s7.061-6.812,14.812-15.027h8.851v15.157H-60.074v12.113h34.446v29.045a12.47,12.47,0,0,1-1.316-.073c-3.8-.172-9.742-.8-12.023-4.446-2.818-4.444-.765-12.6-.607-17.627H-63.31l-.863.446s-8.661,38.949,25.118,38.085c31.587.852,49.718-8.791,58.407-15.459l3.467,12.876,19.5-8.1-13.169-32.322-15.865,4.92,2.975,11.088a49.671,49.671,0,0,1-13.787,6.973V1386.82H36.042v-12.113H2.477V1359.55H36.186v-12.113H-23.695c4.3-5.254,7.7-10.047,8.6-13.122l-10.425-2.814c44.756-16.009,69.7-13.283,69.471,12.991v69.222s2.656,23.82-24.6,22.084l-14.724-3.173-3.45,14S64.785,1464.79,70,1415.894C75.193,1366.985,68.681,1335.817,68.681,1335.817Z" fill="#ff5622"/>
    </g>
  </g>
</svg>
