<svg xmlns="http://www.w3.org/2000/svg" viewBox="0 0 227.333 227.333">
  <g transform="translate(-304.65 -1376.713)">
    <path d="M304.65,1376.713H531.983v227.333H304.65Z" fill="none"/>
    <g>
      <path d="M454.022,1457.93a62.035,62.035,0,0,1,6.877.423c-6.179-28.773-36.941-50.151-72.053-50.151-39.256,0-71.412,26.757-71.412,60.735,0,19.613,10.7,35.718,28.575,48.21l-7.142,21.483,24.964-12.519c8.933,1.768,16.1,3.586,25.015,3.586,2.241,0,4.463-.111,6.666-.284a53.207,53.207,0,0,1-2.2-14.964C393.309,1483.25,420.1,1457.93,454.022,1457.93Zm-38.4-19.362c5.377,0,8.939,3.537,8.939,8.911,0,5.352-3.562,8.939-8.939,8.939-5.352,0-10.723-3.587-10.723-8.939C404.9,1442.1,410.273,1438.568,415.625,1438.568Zm-49.979,17.85c-5.351,0-10.753-3.587-10.753-8.939,0-5.374,5.4-8.911,10.753-8.911s8.915,3.537,8.915,8.911C374.561,1452.831,371,1456.418,365.646,1456.418Z" fill="#52c162" fill-rule="evenodd"/>
      <path d="M519.2,1513.591c0-28.551-28.571-51.824-60.658-51.824-33.978,0-60.739,23.273-60.739,51.824,0,28.6,26.761,51.824,60.739,51.824,7.111,0,14.284-1.793,21.427-3.583l19.587,10.726-5.371-17.847C508.52,1543.957,519.2,1529.7,519.2,1513.591Zm-80.352-8.936a7.143,7.143,0,0,1,0-14.287c5.4,0,8.94,3.583,8.94,7.142C447.788,1501.118,444.25,1504.655,438.848,1504.655Zm39.281,0a7.64,7.64,0,0,1-7.093-7.145c0-3.559,3.562-7.142,7.093-7.142,5.352,0,8.939,3.583,8.939,7.142C487.068,1501.118,483.481,1504.655,478.129,1504.655Z" fill="#52c162" fill-rule="evenodd"/>
    </g>
  </g>
</svg>
