<svg xmlns="http://www.w3.org/2000/svg" viewBox="0 0 227.333 227.333">
  <g transform="translate(89.985 -1541.407)">
    <path d="M-89.985,1541.407H137.348V1768.74H-89.985Z" fill="none"/>
    <g>
      <path d="M77.007,1651.883c-2.989-.9-5.039-1.506-3.472-5.434,3.39-8.528,3.742-15.886.064-21.134-6.891-9.847-25.747-9.314-47.359-.265,0-.012-6.787,2.969-5.053-2.414,3.326-10.687,2.825-19.641-2.349-24.808-11.727-11.734-42.909.443-69.648,27.174-20.025,20.03-31.652,41.253-31.652,59.607,0,35.1,45.018,56.449,89.059,56.449,57.736,0,96.142-33.545,96.142-60.177C102.739,1664.79,89.185,1655.659,77.007,1651.883Z" fill="#ef1b1b"/>
      <path d="M6.716,1728.475c-35.144,3.468-65.48-12.418-67.763-35.492s24.365-44.585,59.505-48.059,65.485,12.411,67.763,35.475C68.5,1703.48,41.864,1725,6.716,1728.475Z" fill="#fff"/>
      <path d="M115.348,1587.638a56.184,56.184,0,0,0-53.491-17.315h-.008a8.13,8.13,0,0,0,3.4,15.9,39.966,39.966,0,0,1,46.38,51.394l0,0a8.132,8.132,0,0,0,15.472,5.012.105.105,0,0,1,0-.031,56.175,56.175,0,0,0-11.756-54.964" fill="#ffab15"/>
      <path d="M93.936,1606.961a27.354,27.354,0,0,0-26.056-8.422,6.993,6.993,0,1,0,2.919,13.678v.008a13.371,13.371,0,0,1,15.53,17.21h.008a6.994,6.994,0,1,0,13.311,4.3,27.328,27.328,0,0,0-5.712-26.776" fill="#ffab15"/>
      <g>
        <path d="M10.227,1662.68c-16.723-4.35-35.625,3.984-42.888,18.719-7.4,15.029-.245,31.711,16.651,37.164,17.5,5.644,38.13-3,45.3-19.226C36.366,1683.48,27.534,1667.153,10.227,1662.68Zm-12.769,38.379c-3.4,5.424-10.679,7.8-16.161,5.3-5.4-2.461-7-8.759-3.6-14.047,3.358-5.266,10.392-7.612,15.834-5.33C-.962,1689.325.8,1695.583-2.542,1701.059Zm11.2-14.371a5.079,5.079,0,0,1-6.075,2.235,3.545,3.545,0,0,1-1.56-5.276,5.008,5.008,0,0,1,5.924-2.229A3.548,3.548,0,0,1,8.656,1686.688Z" fill="#040000"/>
      </g>
    </g>
  </g>
</svg>
