<svg xmlns="http://www.w3.org/2000/svg" viewBox="0 0 168 168">
  <g transform="translate(-2886.252 -65.736)">
    <rect width="168" height="168" transform="translate(2886.252 65.736)" fill="#4758a9"/>
    <path d="M3054.252,197.086l-66.585-47.35,66.585-47.35V77.618l-84,59.734-84-59.734v24.767l66.586,47.351-66.586,47.351v24.768l84-59.734,84,59.734Z" fill="#fff" fill-rule="evenodd"/>
    <path d="M3054.252,201.235l-72.393-51.5,72.393-51.5V81.723l-84,59.756-84-59.756V98.236l72.393,51.5-72.393,51.5v16.514l84-59.756,84,59.756Z" fill="#ed5565" fill-rule="evenodd"/>
    <path d="M3054.252,129.676h-63.939V65.736h-40.121v63.94h-63.939V169.8h63.939v63.94h40.121V169.8h63.939Z" fill="#fff" fill-rule="evenodd"/>
    <path d="M3054.252,137.64h-71.9v-71.9h-24.193v71.9h-71.9v24.192h71.9v71.9h24.193v-71.9h71.9Z" fill="#ed5565" fill-rule="evenodd"/>
  </g>
</svg>
