<svg xmlns="http://www.w3.org/2000/svg" viewBox="0 0 168 168">
  <g transform="translate(-2628.109 -65.736)">
    <rect width="168" height="168" transform="translate(2628.109 65.736)" fill="#ed5565"/>
    <path d="M2704.94,150.5s-15.7-4.391-15.7-26.025c0-21,25.114-27.066,31.4-27.066-10.967,9.336-3.139,14.18-3.139,23.943C2717.5,133.85,2694.62,133.9,2704.94,150.5Zm3.888-3.241s-.652-16.208,20.032-22.893c20.078-6.489,33.638,15.4,35.579,21.338-12.315-7.491-14.527,1.411-23.862,4.428-11.947,3.862-19.067-17.768-31.747-2.874Zm4.3,2.676s15.294-5.626,28.078,11.876c12.409,16.99-4.325,36.581-9.406,40.253,3.356-13.964-5.839-13.307-11.608-21.205-7.382-10.113,11.1-23.529-7.062-30.925Zm-1.23,4.9s10.1,12.731-2.678,30.233c-12.41,16.989-36.312,7.212-41.393,3.54,14.389-1.14,10.918-9.636,16.688-17.534,7.4-10.113,25.925,3.224,27.385-16.24Zm-5.06.349s-9.049,13.494-29.734,6.809c-20.078-6.49-18.116-32.124-16.176-38.065,5.537,13.26,12.587,7.351,21.922,10.368,11.95,3.862,4.93,25.521,23.99,20.887Z" fill="#fff" fill-rule="evenodd"/>
  </g>
</svg>
