<svg xmlns="http://www.w3.org/2000/svg" viewBox="0 0 168 168">
  <rect width="168" height="168" fill="#fff"/>
  <rect width="168" height="56" fill="#ffe35a"/>
  <rect width="168" height="56" transform="translate(0 112)" fill="#52c162"/>
  <g>
    <path id="路径_784" data-name="路径 784" d="M93.1,86c0,.2-.1.3-.1.5L107,93,92.5,87.8l-.1-.1c-.1.2-.1.3-.2.4L104.7,97,91.5,89.2a1.38,1.38,0,0,1-.3.4l10.4,11.3L90.3,90.8c-.1.1-.2.1-.2.3l8.1,13L89,91.9c-.2.1-.3.2-.5.3l5.3,14.4L87.3,92.8c-.1,0-.2.1-.4.1h0l2.5,15.3L85.6,93.3v-.2a1.087,1.087,0,0,1-.5.1l-.7,15.5-.7-15.3v-.2h-.3l-3.5,15.1,2.2-15.2V93c-.2,0-.4-.1-.6-.1l-6.5,14,5-14.4v-.1l-.4-.2-9.1,12.6,7.8-13.2v-.1a1.38,1.38,0,0,1-.4-.3L66.5,101.6,77,90.3h0c-.1-.1-.2-.2-.2-.3L63.7,98.2,76,88.9c-.1-.2-.2-.3-.3-.5L61.2,93.7l13.9-6.5c0-.1-.1-.1-.1-.2L59.8,89.5l14.8-3.8c0-.2-.1-.4-.1-.6l-15.3-.7,15.2-.7v-.4L59.5,79.8l15.1,2.1c.1-.2.1-.4.2-.6L61,74.9l14.3,5.2c0-.1.1-.2.2-.3l-12.6-9,13.2,7.8a1.756,1.756,0,0,1,.4-.5L66.1,66.7,77.4,77.1l.3-.3-8.1-13L78.8,76a2.186,2.186,0,0,0,.5-.3L74,61.2l6.5,13.9c.2,0,.3-.1.5-.2L78.5,59.8l3.8,14.8c.2,0,.4-.1.6-.1l.7-15.3.7,15.3h.4l3.4-14.9L86,74.7c.2,0,.4.1.6.1L93.1,61,87.9,75.4c.1.1.2.1.3.2L97.3,63,89.5,76.2l-.1.1a2.181,2.181,0,0,0,.5.4l11.5-10.5L90.9,77.5l-.1.1c.1.1.2.1.3.2l13.2-8.2L92,78.8l-.1.1c.1.2.2.3.3.5h0L106.8,74,92.9,80.5l-.2.1c0,.1.1.2.1.3l15.3-2.5L93.2,82.2h-.1c0,.2.1.4.1.6l15.5.7-15.3.7h-.1v.3L108.5,88,93.1,86Z" fill="#4758a9"/>
  </g>
  <g>
    <path d="M109,82a25.033,25.033,0,0,0-49.9,0,12.75,12.75,0,0,0-.1,2,25.05,25.05,0,0,0,50.1,0A14.084,14.084,0,0,1,109,82Zm-3.1,10.6v.1a17.942,17.942,0,0,1-2,3.9.1.1,0,0,1-.1.1,20.559,20.559,0,0,1-2.9,3.7.1.1,0,0,1-.1.1,26.923,26.923,0,0,1-3.2,2.7.1.1,0,0,0-.1.1,23.776,23.776,0,0,1-4.1,2.3h-.1a18.7,18.7,0,0,1-4.2,1.3H89a24.162,24.162,0,0,1-4.7.5H84a25.952,25.952,0,0,1-4-.3h-.1a21.335,21.335,0,0,1-4.5-1.3.1.1,0,0,1-.1-.1,19.755,19.755,0,0,1-3.8-2,.1.1,0,0,1-.1-.1,20.559,20.559,0,0,1-3.7-2.9l-.1-.1a20.786,20.786,0,0,1-2.7-3.2l-.1-.1a23.776,23.776,0,0,1-2.3-4.1v-.1a25.489,25.489,0,0,1-1.3-3.9v-.1a24.163,24.163,0,0,1-.5-4.7v-.5a12.75,12.75,0,0,1,.1-2,11.019,11.019,0,0,1,.2-1.8V80a24.171,24.171,0,0,1,1.3-4.6v-.1a19.277,19.277,0,0,1,1.9-3.8.1.1,0,0,1,.1-.1,20.559,20.559,0,0,1,2.9-3.7.1.1,0,0,1,.1-.1,29.153,29.153,0,0,1,3.2-2.8l.1-.1a27.542,27.542,0,0,1,4.1-2.4h.1A25.861,25.861,0,0,1,79,60.9h.1a24.176,24.176,0,0,1,4.7-.6h.4a25.612,25.612,0,0,1,3.9.3h.1a24.171,24.171,0,0,1,4.6,1.3h.1a26.949,26.949,0,0,1,3.8,1.9c.1,0,.1,0,.1.1a20.559,20.559,0,0,1,3.7,2.9l.1.1a26.923,26.923,0,0,1,2.7,3.2l.1.1a23.776,23.776,0,0,1,2.3,4.1v.1a17.861,17.861,0,0,1,1.3,4.1v.1a28.678,28.678,0,0,1,.5,3.1,8.6,8.6,0,0,1,.1,1.6v.4a25.612,25.612,0,0,1-.3,3.9v.1A41.934,41.934,0,0,1,105.9,92.6Z" fill="#4758a9"/>
  </g>
</svg>
