<svg xmlns="http://www.w3.org/2000/svg" viewBox="0 0 168 168">
  <g transform="translate(-2111.824 -65.736)">
    <rect width="168" height="168" transform="translate(2111.823 65.736)" fill="#ed5565"/>
    <path d="M2199.076,99.847l10.81,32.728a3.415,3.415,0,0,0,3.252,2.324h34.95a3.355,3.355,0,0,1,2,6.088l-28.256,20.119a3.333,3.333,0,0,0-1.247,3.765l10.8,32.658a3.406,3.406,0,0,1-5.263,3.761l-28.292-20.24a3.467,3.467,0,0,0-4.021,0l-28.292,20.211a3.406,3.406,0,0,1-5.261-3.763l10.8-32.619a3.333,3.333,0,0,0-1.246-3.766l-28.258-20.125a3.355,3.355,0,0,1,2.005-6.088h34.951a3.413,3.413,0,0,0,3.252-2.324l10.81-32.728A3.437,3.437,0,0,1,2199.076,99.847Z" fill="#ffe35a"/>
  </g>
</svg>
