<svg xmlns="http://www.w3.org/2000/svg" viewBox="0 0 168 168">
  <g transform="translate(-2369.966 -65.736)">
    <rect width="168" height="168" transform="translate(2369.966 65.736)" fill="#ed5565"/>
    <path d="M2466.207,126.379c-1.007.716-1.592.313-1.3-.9l1.084-4.5a4.078,4.078,0,0,0-1.168-3.671l-3.285-2.849c-.934-.811-.692-1.5.539-1.537l4.6-.13a3.308,3.308,0,0,0,2.873-2.233l1.44-4.917c.35-1.193.978-1.212,1.4-.041l1.732,4.85a3.473,3.473,0,0,0,3,2.151l4.691.047c1.231.013,1.477.691.548,1.507l-3.569,3.133a3.89,3.89,0,0,0-1.064,3.657l1.139,3.96c.344,1.195-.234,1.641-1.283.99l-3.81-2.359a3.667,3.667,0,0,0-3.739.121Zm0,66c-1.007.716-1.592.313-1.3-.9l1.084-4.5a4.078,4.078,0,0,0-1.168-3.671l-3.285-2.849c-.934-.811-.692-1.5.539-1.537l4.6-.13a3.308,3.308,0,0,0,2.873-2.233l1.44-4.917c.35-1.193.978-1.212,1.4-.041l1.732,4.85a3.473,3.473,0,0,0,3,2.151l4.691.047c1.231.013,1.477.691.548,1.507l-3.569,3.133a3.89,3.89,0,0,0-1.064,3.657l1.139,3.96c.344,1.2-.234,1.64-1.283.99l-3.81-2.359a3.667,3.667,0,0,0-3.739.121Zm25.049-18.857c-1.006.716-1.591.313-1.3-.9l1.085-4.5a4.085,4.085,0,0,0-1.169-3.672l-3.284-2.849c-.935-.81-.692-1.5.538-1.536l4.6-.131a3.3,3.3,0,0,0,2.873-2.232l1.441-4.917c.349-1.193.977-1.212,1.4-.041l1.732,4.85a3.474,3.474,0,0,0,3,2.151l4.69.047c1.231.013,1.477.69.548,1.507l-3.568,3.133a3.888,3.888,0,0,0-1.065,3.657l1.14,3.96c.344,1.195-.234,1.64-1.284.99l-3.81-2.359a3.667,3.667,0,0,0-3.739.121Zm0-25.143c-1.006.716-1.591.313-1.3-.9l1.085-4.5a4.082,4.082,0,0,0-1.169-3.671l-3.284-2.849c-.935-.811-.692-1.5.538-1.537l4.6-.13a3.3,3.3,0,0,0,2.873-2.233l1.441-4.917c.349-1.193.977-1.212,1.4-.041l1.732,4.85a3.473,3.473,0,0,0,3,2.151l4.69.047c1.231.013,1.477.691.548,1.507l-3.568,3.133a3.888,3.888,0,0,0-1.065,3.657l1.14,3.96c.344,1.2-.234,1.64-1.284.99l-3.81-2.359a3.67,3.67,0,0,0-3.739.121Zm-61.421-26.307,6.211,18.8a1.962,1.962,0,0,0,1.868,1.335H2458a1.928,1.928,0,0,1,1.152,3.5l-16.235,11.56a1.915,1.915,0,0,0-.717,2.163l6.2,18.764a1.956,1.956,0,0,1-3.023,2.161l-16.256-11.629a1.991,1.991,0,0,0-2.31,0l-16.256,11.613a1.956,1.956,0,0,1-3.022-2.162l6.2-18.742a1.916,1.916,0,0,0-.717-2.164l-16.236-11.563a1.928,1.928,0,0,1,1.152-3.5h20.082a1.961,1.961,0,0,0,1.869-1.335l6.211-18.8A1.975,1.975,0,0,1,2429.835,122.072Z" fill="#ffe35a"/>
  </g>
</svg>
