<svg xmlns="http://www.w3.org/2000/svg" xmlns:xlink="http://www.w3.org/1999/xlink" viewBox="0 0 1000 1000"><defs><radialGradient id="a" cx="50.45" cy="899.6" r="0.5" gradientTransform="matrix(1000, 0, 0, -1000, -49950.06, 900101.01)" gradientUnits="userSpaceOnUse"><stop offset="0" stop-color="#fff"/><stop offset="1" stop-color="#f3f2ff"/></radialGradient></defs><rect width="1000" height="1000" style="fill:url(#a)"/><path d="M0,590.88,409.12,1000H390.88L0,609.12Zm0,43.24L365.88,1000h18.24L0,615.88Zm0-175L459.12,0H440.88L0,440.88Zm0,125L415.88,1000h18.24L0,565.88ZM0,415.88v18.24L434.12,0H415.88ZM0,709.12,290.88,1000h18.24L0,690.88Zm0-25L315.88,1000h18.24L0,665.88ZM0,390.88v18.24L409.12,0H390.88ZM9.12,0H0V9.12ZM0,340.88v18.24L359.12,0H340.88ZM0,659.12,340.88,1000h18.24L0,640.88ZM0,315.88v18.24L334.12,0H315.88Zm0,50v18.24L384.12,0H365.88ZM0,559.12,440.88,1000h18.24L0,540.88ZM884.12,1000,1000,884.12V865.88L865.88,1000Zm-75,0L1000,809.12V790.88L790.88,1000Zm100,0L1000,909.12V890.88L890.88,1000Zm-75,0L1000,834.12V815.88L815.88,1000Zm25,0L1000,859.12V840.88L840.88,1000ZM0,534.12,465.88,1000h18.24L0,515.88ZM1000,1000v-9.12l-9.12,9.12Zm-15.88,0L1000,984.12V965.88L965.88,1000Zm-25,0L1000,959.12V940.88L940.88,1000Zm-25,0L1000,934.12V915.88L915.88,1000ZM0,934.12,65.88,1000H84.12L0,915.88ZM0,65.88V84.12L84.12,0H65.88Zm0,50v18.24L134.12,0H115.88ZM0,734.12,265.88,1000h18.24L0,715.88Zm0,175L90.88,1000h18.24L0,890.88Zm0-25L115.88,1000h18.24L0,865.88ZM0,90.88v18.24L109.12,0H90.88ZM465.88,0,0,465.88v18.24L484.12,0ZM784.12,1000,1000,784.12V765.88L765.88,1000ZM0,959.12,40.88,1000H59.12L0,940.88ZM0,1000H9.12L0,990.88ZM0,15.88V34.12L34.12,0H15.88ZM0,984.12,15.88,1000H34.12L0,965.88ZM0,40.88V59.12L59.12,0H40.88ZM0,784.12,215.88,1000h18.24L0,765.88ZM0,265.88v18.24L284.12,0H265.88ZM0,859.12,140.88,1000h18.24L0,840.88Zm0-100L240.88,1000h18.24L0,740.88Zm0,50L190.88,1000h18.24L0,790.88ZM0,290.88v18.24L309.12,0H290.88Zm0-50v18.24L259.12,0H240.88Zm0-25v18.24L234.12,0H215.88Zm0-75v18.24L159.12,0H140.88ZM0,834.12,165.88,1000h18.24L0,815.88ZM0,165.88v18.24L184.12,0H165.88Zm0,25v18.24L209.12,0H190.88Zm500,0L809.12,500,500,809.12,190.88,500ZM790.88,500,500,209.12,209.12,500,500,790.88ZM565.88,0,1000,434.12V415.88L584.12,0Zm75,0L1000,359.12V340.88L659.12,0Zm75,0L1000,284.12V265.88L734.12,0Zm-100,0L1000,384.12V365.88L634.12,0Zm75,0L1000,309.12V290.88L709.12,0Zm-25,0L1000,334.12V315.88L684.12,0Zm-75,0L1000,409.12V390.88L609.12,0ZM500,15.88,984.12,500,500,984.12,15.88,500ZM965.88,500,500,34.12,34.12,500,500,965.88ZM500,40.88,959.12,500,500,959.12,40.88,500ZM940.88,500,500,59.12,59.12,500,500,940.88ZM509.12,0,1000,490.88v18.24L509.12,1000H490.88L0,509.12V490.88L490.88,0ZM990.88,500,500,9.12,9.12,500,500,990.88ZM540.88,0,1000,459.12V440.88L559.12,0Zm-25,0L1000,484.12V465.88L534.12,0Zm475,0L1000,9.12V0Zm-100,0L1000,109.12V90.88L909.12,0Zm50,0L1000,59.12V40.88L959.12,0Zm-25,0L1000,84.12V65.88L934.12,0ZM500,65.88,934.12,500,500,934.12,65.88,500ZM915.88,500,500,84.12,84.12,500,500,915.88Zm50-500L1000,34.12V15.88L984.12,0Zm-200,0L1000,234.12V215.88L784.12,0Zm-25,0L1000,259.12V240.88L759.12,0Zm50,0L1000,209.12V190.88L809.12,0Zm25,0L1000,184.12V165.88L834.12,0Zm25,0L1000,159.12V140.88L859.12,0Zm25,0L1000,134.12V115.88L884.12,0ZM500,165.88,834.12,500,500,834.12,165.88,500ZM815.88,500,500,184.12,184.12,500,500,815.88ZM559.12,1000,1000,559.12V540.88L540.88,1000Zm25,0L1000,584.12V565.88L565.88,1000ZM500,415.88,584.12,500,500,584.12,415.88,500ZM565.88,500,500,434.12,434.12,500,500,565.88Zm-31.76,500L1000,534.12V515.88L515.88,1000ZM500,465.88,534.12,500,500,534.12,465.88,500ZM515.88,500,500,484.12,484.12,500,500,515.88ZM500,440.88,559.12,500,500,559.12,440.88,500ZM540.88,500,500,459.12,459.12,500,500,540.88Zm68.24,500L1000,609.12V590.88L590.88,1000Zm100,0L1000,709.12V690.88L690.88,1000Zm25,0L1000,734.12V715.88L715.88,1000Zm-50,0L1000,684.12V665.88L665.88,1000Zm-25,0L1000,659.12V640.88L640.88,1000Zm-25,0L1000,634.12V615.88L615.88,1000Zm125,0L1000,759.12V740.88L740.88,1000ZM500,240.88,759.12,500,500,759.12,240.88,500ZM740.88,500,500,259.12,259.12,500,500,740.88ZM500,215.88,784.12,500,500,784.12,215.88,500ZM765.88,500,500,234.12,234.12,500,500,765.88ZM500,90.88,909.12,500,500,909.12,90.88,500ZM890.88,500,500,109.12,109.12,500,500,890.88ZM500,140.88,859.12,500,500,859.12,140.88,500ZM840.88,500,500,159.12,159.12,500,500,840.88ZM500,115.88,884.12,500,500,884.12,115.88,500ZM865.88,500,500,134.12,134.12,500,500,865.88ZM500,390.88,609.12,500,500,609.12,390.88,500ZM590.88,500,500,409.12,409.12,500,500,590.88ZM500,340.88,659.12,500,500,659.12,340.88,500ZM640.88,500,500,359.12,359.12,500,500,640.88ZM500,265.88,734.12,500,500,734.12,265.88,500ZM715.88,500,500,284.12,284.12,500,500,715.88ZM500,365.88,634.12,500,500,634.12,365.88,500ZM615.88,500,500,384.12,384.12,500,500,615.88ZM500,315.88,684.12,500,500,684.12,315.88,500ZM665.88,500,500,334.12,334.12,500,500,665.88ZM500,290.88,709.12,500,500,709.12,290.88,500ZM690.88,500,500,309.12,309.12,500,500,690.88Z" style="fill:#fff"/></svg>