<svg xmlns="http://www.w3.org/2000/svg" viewBox="0 0 182 182"><rect width="182" height="182" style="fill:none"/><path d="M59,12.33H53.12V6.5H59ZM175.5,6.5V47.29H134.71V6.5Zm-5.83,5.83H140.53V41.47h29.14V12.33Zm-40.79,5.83V6.5h-5.83v5.83H99.74V24h5.83V18.15h17.48V24h5.83Zm23.31,0h-5.83V35.64h17.48V18.16ZM93.91,24H88.08v5.83h5.83ZM29.81,35.64h5.83V18.16H18.15V35.64Zm35-5.83H70.6V24H64.77V18.15H58.94V24H53.11v5.83h5.83V41.47h5.83V29.81ZM12.33,47.29H6.5V6.5H47.29V47.29Zm0-5.82H41.47V12.33H12.33V41.47Zm40.79,5.82H59V41.47H53.12ZM47.29,59V53.12H29.81V59h5.83v5.83h5.82V59ZM158,53.12h-5.83V59H158ZM169.67,59v5.83H152.19v5.83h-5.83v5.82H158V70.6h5.82v5.83h5.83V70.6h5.83V53.12h-5.83Zm-23.31,0v5.83h5.83V59ZM18.15,70.6H29.81V64.77H24V53.12H18.15V59H6.5V70.6Zm29.14-5.83H41.46V70.6h5.83ZM64.77,70.6V64.77H76.43V70.6H88.08v5.83H82.26v5.83h5.82v5.82h5.83v5.83h5.83V82.26h5.83V76.43H93.91V64.77h11.66V41.46H99.74v5.83H93.91v5.83h5.83V59H93.91V53.12H88.08V59H76.43V53.12h5.83V41.47h5.83v5.82h5.82V41.47h5.83V35.64H88.08V29.81H82.26V18.15h5.82V6.5H70.6v5.83H64.77v5.83H76.43V35.64H70.6v5.83h5.83V47.3H70.6V41.47H64.77V53.12H70.6V59H59V53.12H53.12V70.6Zm-23.31,0H35.64v5.83h5.82Zm99.07,5.83h5.83V99.74H158v5.83H146.36v5.82H158v11.66h-5.83v-5.83h-5.83v5.83h5.83v23.31H158v5.83h-5.83v11.65h-5.83v5.83H134.71v-5.83h5.82V158h5.83v-5.82H134.71V158H123.05V140.53h-5.83V134.7h5.83V123.05h11.66v-5.83h5.82V105.57h-5.82V99.74h5.82V93.91h-5.82V88.08H123.05V82.25h-5.83V76.42h5.83V70.6h-5.83v5.83H105.57V64.77h11.65V47.29h5.83V41.46h-5.83v5.83H111.4V35.64H99.74V29.81h17.48V24h5.83V35.63h5.83V53.12h5.83V64.77h-5.83V70.6h11.65Zm5.83,52.45H128.88v17.48h17.48V128.88ZM134.71,76.43h-5.83v5.83h5.83ZM6.5,76.43v5.83h5.83V76.43Zm35,0v5.83H53.12V70.6H47.29v5.83Zm17.49,0v5.83h5.83V76.43Zm11.65,0v5.83h5.83V76.43ZM18.15,82.26H12.33v5.82h5.82ZM24,88.08h5.83V82.26h5.83V76.43H18.15v5.83H24Zm29.14,0H59V82.26H53.12Zm11.66,0H70.6V82.26H64.77Zm17.48-5.82H76.43V93.91h5.83Zm23.31,0V93.91H99.74v5.83h5.83v5.83h5.83V88.08h5.83V82.26Zm58.27,0v5.82H158v5.83H175.5V82.26ZM6.5,88.09v5.82h5.83V88.09Zm11.65,0v5.82H24V88.09ZM12.33,99.74H6.5v5.83H18.15V93.91H12.33Zm23.31-5.83V88.08H29.81v5.83H24v5.83H41.46V93.91Zm58.27,5.83V93.91H82.26v5.83Zm23.31,0h11.66V93.91H117.22Zm-64.1,0H59V93.91H53.12V88.08H41.46v5.83h5.83v5.83H41.46v5.83h5.83v5.83h5.83V99.74Zm11.66,5.83V99.74H59v5.83Zm17.48,0V99.74H70.6V111.4h5.83v-5.83Zm-40.79,0H35.64v5.83H24v5.83H12.33v5.82H35.64v-5.82H47.29V111.4H41.46Zm75.76,5.83h5.82v-5.83H111.4v5.83Zm46.62,0v5.83h5.82v5.82h5.83V99.74H163.84v5.83H158v5.83ZM6.5,111.4v5.83h5.83V111.4Zm122.38,0v5.83h5.83V111.4Zm-11.66,5.83v5.83h5.83v-5.83ZM6.5,128.88h5.83v-5.83H6.5ZM59,123.05V111.4H53.12v11.65H41.46v5.83H53.12v5.83H59V123.06Zm17.48,5.83h5.83v-5.83h5.83v-5.83h5.82v11.66h11.66V111.4H99.74v-5.83H93.91v5.83H76.43v5.83H64.77v17.48H70.6v-5.83Zm35,0h5.83v-5.83H111.4ZM158,123.05v5.83h5.82v5.83H158v5.83h5.82v11.65H158V158h11.65V146.36h5.83V128.88h-5.83v-5.83Zm-52.45,11.66h5.83v-5.83h-5.83Zm-64.1,0H47.3V175.5H6.5V134.71h35Zm0,5.82H12.33v29.14H41.46V140.53Zm17.48,0h5.83v-5.82H59Zm75.76,0h5.83v-5.82h-5.83Zm-81.59,5.83v5.83H59V140.54H53.12Zm-29.14,0H18.16v17.49H35.64V146.36Zm93.25,17.49v5.82H111.4v5.83h11.65V158h-5.82Zm58.27,0V158h-5.83v5.83Zm-75.76,0h5.83V158h11.66v-5.83H93.92v-5.83h11.65V134.71H99.74v5.82H93.91v-5.82H88.09v-5.83H82.26v5.83H70.6v11.65H64.77V158H53.12v5.82H70.6V152.19h5.83v-5.83h5.82v-5.83h5.83v11.66H82.25V158h5.83v5.83H70.6v5.82H82.25v5.83h23.31v-5.83H99.74Zm5.83,0v5.82h5.83v-5.82Zm52.45,0V175.5H175.5v-5.83h-5.83v-5.83H158ZM59,175.5h5.82v-5.83H59Zm93.24,0v-5.83h-5.83v5.83Z"/></svg>