<svg xmlns="http://www.w3.org/2000/svg" viewBox="0 0 169 169"><path d="M532.448-262.172h-5.828V-268h5.828ZM649-268v40.793H608.207V-268H649Zm-5.828,5.828H614.035v29.138h29.138v-29.138Zm-40.793,5.828V-268h-5.828v5.828h-23.31v11.655h5.828v-5.828h17.483v5.828h5.828Zm23.31,0h-5.828v17.483h17.483v-17.483H625.69Zm-58.276,5.828h-5.828v5.828h5.828Zm-64.1,11.655h5.828v-17.483H491.655v17.483H503.31Zm34.965-5.828H544.1v-5.828h-5.828v-5.828h-5.828v5.828h-5.828v5.828h5.828v11.655h5.828V-244.69Zm-52.448,17.483H480V-268h40.793v40.793H485.828Zm0-5.828h29.138v-29.138H485.828v29.138Zm40.793,5.828h5.828v-5.828h-5.828Zm-5.828,11.655v-5.828H503.31v5.828h5.828v5.828h5.828v-5.828Zm110.724-5.828H625.69v5.828h5.828Zm11.655,5.828v5.828H625.69v5.828h-5.828v5.828h11.655V-203.9h5.828v5.828h5.828V-203.9H649v-17.483h-5.828Zm-23.31,0v5.828h5.828v-5.828ZM491.655-203.9H503.31v-5.828h-5.828v-11.655h-5.828v5.828H480V-203.9h11.655Zm29.138-5.828h-5.828v5.828h5.828Zm17.483,5.828v-5.828h11.655v5.828h11.655v5.828h-5.828v5.828h5.828v5.828h5.828v5.828h5.828v-11.655h5.828v-5.828H567.414v-11.655h11.655v-23.31h-5.828v5.828h-5.828v5.828h5.828v5.828h-5.828v-5.828h-5.828v5.828H549.931v-5.828h5.828v-11.655h5.828v5.828h5.828v-5.828h5.828v-5.828H561.586v-5.828h-5.828v-11.655h5.828V-268H544.1v5.828h-5.828v5.828h11.655v17.483H544.1v5.828h5.828v5.828H544.1v-5.828h-5.828v11.655H544.1v5.828H532.448v-5.828h-5.828V-203.9h11.655Zm-23.31,0h-5.828v5.828h5.828Zm99.069,5.828h5.828v23.31h11.655v5.828H619.862v5.828h11.655v11.655H625.69v-5.828h-5.828v5.828h5.828v23.31h5.828v5.828H625.69v11.655h-5.828v5.828H608.207v-5.828h5.828v-5.828h5.828v-5.828H608.207v5.828H596.552v-17.483h-5.828v-5.828h5.828v-11.655h11.655v-5.828h5.828v-11.655h-5.828v-5.828h5.828v-5.828h-5.828v-5.828H596.552v-5.828h-5.828v-5.828h5.828V-203.9h-5.828v5.828H579.069v-11.655h11.655v-17.483h5.828v-5.828h-5.828v5.828H584.9v-11.655H573.241v-5.828h17.483v-5.828h5.828v11.655h5.828v17.483h5.828v11.655h-5.828v5.828h11.655Zm5.828,52.448H602.379v17.483h17.483v-17.483Zm-11.655-52.448h-5.828v5.828h5.828Zm-128.207,0v5.828h5.828v-5.828Zm34.966,0v5.828h11.655V-203.9h-5.828v5.828Zm17.483,0v5.828h5.828v-5.828Zm11.655,0v5.828h5.828v-5.828Zm-52.448,5.828h-5.828v5.828h5.828Zm5.828,5.828h5.828v-5.828h5.828v-5.828H491.655v5.828h5.828Zm29.138,0h5.828v-5.828h-5.828Zm11.655,0H544.1v-5.828h-5.828Zm17.483-5.828h-5.828v11.655h5.828v-11.655Zm23.31,0v11.655h-5.828v5.828h5.828v5.828H584.9v-17.483h5.828v-5.828H579.069Zm58.276,0v5.828h-5.828v5.828H649v-11.655H637.345ZM480-186.414v5.828h5.828v-5.828Zm11.655,0v5.828h5.828v-5.828Zm-5.828,11.655H480v5.828h11.655v-11.655h-5.828Zm23.31-5.828v-5.828H503.31v5.828h-5.828v5.828h17.483v-5.828Zm58.276,5.828v-5.828H555.759v5.828h11.655Zm23.31,0h11.655v-5.828H590.724Zm-64.1,0h5.828v-5.828h-5.828v-5.828H514.966v5.828h5.828v5.828h-5.828v5.828h5.828v5.828h5.828v-11.655Zm11.655,5.828v-5.828h-5.828v5.828Zm17.483,0v-5.828H544.1V-163.1h5.828v-5.828Zm-40.793,0h-5.828v5.828H497.483v5.828H485.828v5.828h23.31v-5.828h11.655V-163.1h-5.828Zm75.759,5.828h5.828v-5.828H584.9v5.828Zm46.621,0v5.828h5.828v5.828H649v-23.31H637.345v5.828h-5.828v5.828ZM480-163.1v5.828h5.828V-163.1Zm122.379,0v5.828h5.828V-163.1Zm-11.655,5.828v5.828h5.828v-5.828ZM480-145.621h5.828v-5.828H480Zm52.448-5.828V-163.1h-5.828v11.655H514.966v5.828h11.655v5.828h5.828v-11.655Zm17.483,5.828h5.828v-5.828h5.828v-5.828h5.828v11.655h11.655V-163.1h-5.828v-5.828h-5.828v5.828H549.931v5.828H538.276v17.483H544.1v-5.828Zm34.965,0h5.828v-5.828H584.9Zm46.621-5.828v5.828h5.828v5.828h-5.828v5.828h5.828v11.655h-5.828v5.828h11.655v-11.655H649v-17.483h-5.828v-5.828H631.517Zm-52.448,11.655H584.9v-5.828h-5.828Zm-64.1,0h5.828V-99H480v-40.793h34.966Zm0,5.828H485.828v29.138h29.138v-29.138Zm17.483,0h5.828v-5.828h-5.828Zm75.759,0h5.828v-5.828h-5.828Zm-81.586,5.828v5.828h5.828v-11.655h-5.828Zm-29.138,0h-5.828v17.483h17.483v-17.483H497.483Zm93.241,17.483v5.828H584.9V-99h11.655v-17.483h-5.828Zm58.276,0v-5.828h-5.828v5.828Zm-75.759,0h5.828v-5.828h11.655v-5.828h-23.31v-5.828h11.655v-11.655h-5.828v5.828h-5.828v-5.828h-5.828v-5.828h-5.828v5.828H544.1v11.655h-5.828v11.655H526.621v5.828H544.1V-122.31h5.828v-5.828h5.828v-5.828h5.828v11.655h-5.828v5.828h5.828v5.828H544.1v5.828h11.655V-99h23.31v-5.828h-5.828Zm5.828,0v5.828H584.9v-5.828Zm52.448,0V-99H649v-5.828h-5.828v-5.828H631.517ZM532.448-99h5.828v-5.828h-5.828Zm93.241,0v-5.828h-5.828V-99Z" transform="translate(-480 268)"/></svg>