<svg xmlns="http://www.w3.org/2000/svg" viewBox="0 0 429.61 429.62"><path d="M386.62,85.87h0l-48.48,36.37A154.2,154.2,0,0,1,105.78,323.83a154.19,154.19,0,0,1,109-263.21h0a30.31,30.31,0,1,0,0-60.62h0A214.09,214.09,0,0,0,62.92,62.92C-21,146.8-21,282.81,62.92,366.7a214.79,214.79,0,0,0,303.78,0C443.31,290.09,449.94,170,386.62,85.87Z" style="fill:#6c62f9"/><path d="M338.14,122.24A152.77,152.77,0,0,1,359,160l27.63-74.1Z" style="fill:#3a3acc"/><path d="M300.69,85.7,193.22,193.17a30.31,30.31,0,1,0,42.83,42.9h0L386.62,85.87Z" style="fill:#fc0"/></svg>