<svg xmlns="http://www.w3.org/2000/svg" viewBox="0 0 1000 1000"><defs><radialGradient id="radial-gradient" cx="0.5" cy="0.5" r="0.5" gradientTransform="translate(0)" gradientUnits="objectBoundingBox"><stop offset="0" stop-color="#fbfdff"/><stop offset="1" stop-color="#eff9ff"/></radialGradient></defs><g transform="translate(-2581 -2)"><rect width="1000" height="1000" transform="translate(2581 2)" fill="url(#radial-gradient)"/><path d="M2012.894,390.881,2422.015,800h-18.242L2012.894,409.123Zm0,43.242L2378.773,800h18.242l-384.121-384.12Zm0-175L2472.016-200h-18.243L2012.894,240.88Zm0,125L2428.773,800h18.242l-434.121-434.12Zm0-168.243v18.243L2447.016-200h-18.243Zm0,293.243L2303.773,800h18.242l-309.121-309.12Zm0-25L2328.773,800h18.242l-334.121-334.12Zm0-293.243v18.243L2422.016-200h-18.243ZM2022.015-200h-9.121v9.122Zm-9.121,340.879v18.243L2372.016-200h-18.243Zm0,318.243L2353.773,800h18.242l-359.121-359.12Zm0-343.243v18.243L2347.016-200h-18.243Zm0,50v18.243L2397.016-200h-18.243Zm0,193.243L2453.773,800h18.242l-459.121-459.12ZM2897.015,800l115.879-115.878V665.881L2878.773,800Zm-75,0,190.879-190.878V590.881L2803.773,800Zm100,0,90.879-90.878V690.881L2903.773,800Zm-75,0,165.879-165.878V615.881L2828.773,800Zm25,0,140.879-140.878V640.881L2853.773,800ZM2012.894,334.123,2478.773,800h18.242l-484.121-484.12ZM3012.894,800v-9.12l-9.121,9.12Zm-15.879,0,15.879-15.878V765.881L2978.773,800Zm-25,0,40.879-40.878V740.881L2953.773,800Zm-25,0,65.879-65.878V715.881L2928.773,800Zm-934.121-65.878L2078.773,800h18.242l-84.121-84.12Zm0-868.243v18.243L2097.016-200h-18.243Zm0,50v18.243L2147.016-200h-18.243Zm0,618.243L2278.773,800h18.242l-284.121-284.12Zm0,175L2103.773,800h18.242l-109.121-109.12Zm0-25L2128.773,800h18.242l-134.121-134.12Zm0-793.243v18.243L2122.016-200h-18.243ZM2478.773-200,2012.894,265.88v18.243L2497.016-200ZM2797.015,800l215.879-215.878V565.881L2778.773,800Zm-784.121-40.878L2053.773,800h18.242l-59.121-59.12Zm0,40.878h9.121l-9.121-9.12Zm0-984.121v18.243L2047.015-200h-18.242Zm0,968.243L2028.773,800h18.242l-34.121-34.12Zm0-943.243v18.243L2072.015-200h-18.242Zm0,743.243L2228.773,800h18.242l-234.121-234.12Zm0-518.243V84.123L2297.016-200h-18.243Zm0,593.243L2153.773,800h18.242l-159.121-159.12Zm0-100L2253.773,800h18.242l-259.121-259.12Zm0,50L2203.773,800h18.242l-209.121-209.12Zm0-518.243v18.243L2322.016-200h-18.243Zm0-50V59.123L2272.016-200h-18.243Zm0-25V34.123L2247.016-200h-18.243Zm0-75v18.243L2172.016-200h-18.243Zm0,693.243L2178.773,800h18.242l-184.121-184.12Zm0-668.243v18.243L2197.016-200h-18.243Zm0,25V9.123L2222.016-200h-18.243Zm500,0L2822.015,300,2512.894,609.123,2203.773,300ZM2803.773,300,2512.894,9.123,2222.015,300l290.879,290.879Zm-225-500,434.122,434.122V215.88L2597.015-200Zm75,0,359.122,359.122V140.88L2672.015-200Zm75,0L3012.894,84.123V65.881L2747.015-200Zm-100,0,384.122,384.122V165.88L2647.015-200Zm75,0,309.122,309.122V90.881L2722.015-200Zm-25,0,334.122,334.122V115.881L2697.015-200Zm-75,0,409.122,409.122V190.88L2622.015-200Zm-90.878,15.879L2997.015,300,2512.894,784.123,2028.773,300ZM2978.773,300,2512.894-165.877,2047.015,300l465.879,465.879ZM2512.894-159.12,2972.015,300,2512.894,759.123,2053.773,300ZM2953.773,300,2512.894-140.877,2072.015,300l440.879,440.879ZM2522.015-200l490.879,490.88v18.242L2522.015,800h-18.242L2012.894,309.123V290.881L2503.773-200Zm481.758,500L2512.894-190.877,2022.015,300l490.879,490.879Zm-450-500,459.122,459.122V240.88L2572.015-200Zm-25,0,484.122,484.122V265.881L2547.015-200Zm475,0,9.121,9.122V-200Zm-100,0L3012.894-90.877v-18.242L2922.015-200Zm50,0,59.121,59.122v-18.242L2972.015-200Zm-25,0,84.122,84.122v-18.242L2947.015-200ZM2512.894-134.12,2947.015,300,2512.894,734.123,2078.773,300ZM2928.773,300,2512.894-115.877,2097.015,300l415.879,415.879Zm50-500,34.121,34.122v-18.242L2997.015-200Zm-200,0L3012.894,34.123V15.881L2797.015-200Zm-25,0L3012.894,59.123V40.881L2772.015-200Zm50,0L3012.894,9.123V-9.119L2822.015-200Zm25,0L3012.894-15.877V-34.119L2847.015-200Zm25,0L3012.894-40.877V-59.119L2872.015-200Zm25,0L3012.894-65.877V-84.119L2897.015-200ZM2512.894-34.12,2847.015,300,2512.894,634.123,2178.773,300ZM2828.773,300,2512.894-15.877,2197.015,300l315.879,315.879ZM2572.015,800l440.879-440.878V340.881L2553.773,800Zm25,0,415.879-415.878V365.881L2578.773,800ZM2512.894,215.88,2597.015,300l-84.121,84.121L2428.773,300ZM2578.773,300l-65.879-65.879L2447.015,300l65.879,65.879Zm-31.758,500,465.879-465.878V315.881L2528.773,800ZM2512.894,265.88,2547.015,300l-34.121,34.121L2478.773,300ZM2528.773,300l-15.879-15.879L2497.015,300l15.879,15.879Zm-15.879-59.122L2572.015,300l-59.121,59.121L2453.773,300ZM2553.773,300l-40.879-40.879L2472.015,300l40.879,40.879Zm68.242,500,390.879-390.878V390.881L2603.773,800Zm100,0,290.879-290.878V490.881L2703.773,800Zm25,0,265.879-265.878V515.881L2728.773,800Zm-50,0,315.879-315.878V465.881L2678.773,800Zm-25,0,340.879-340.878V440.881L2653.773,800Zm-25,0,365.879-365.878V415.881L2628.773,800Zm125,0,240.879-240.878V540.881L2753.773,800ZM2512.894,40.88,2772.015,300,2512.894,559.123,2253.773,300ZM2753.773,300,2512.894,59.123,2272.015,300l240.879,240.879ZM2512.894,15.88,2797.015,300,2512.894,584.123,2228.773,300ZM2778.773,300,2512.894,34.123,2247.015,300l265.879,265.879ZM2512.894-109.12,2922.015,300,2512.894,709.123,2103.773,300ZM2903.773,300,2512.894-90.877,2122.015,300l390.879,390.879ZM2512.894-59.12,2872.015,300,2512.894,659.123,2153.773,300ZM2853.773,300,2512.894-40.877,2172.015,300l340.879,340.879ZM2512.894-84.12,2897.015,300,2512.894,684.123,2128.773,300ZM2878.773,300,2512.894-65.877,2147.015,300l365.879,365.879ZM2512.894,190.88,2622.015,300,2512.894,409.123,2403.773,300ZM2603.773,300l-90.879-90.879L2422.015,300l90.879,90.879ZM2512.894,140.88,2672.015,300,2512.894,459.123,2353.773,300ZM2653.773,300,2512.894,159.123,2372.015,300l140.879,140.879ZM2512.894,65.88,2747.015,300,2512.894,534.123,2278.773,300ZM2728.773,300,2512.894,84.123,2297.015,300l215.879,215.879ZM2512.894,165.88,2647.015,300,2512.894,434.123,2378.773,300ZM2628.773,300,2512.894,184.123,2397.015,300l115.879,115.879ZM2512.894,115.88,2697.015,300,2512.894,484.123,2328.773,300ZM2678.773,300,2512.894,134.123,2347.015,300l165.879,165.879ZM2512.894,90.88,2722.015,300,2512.894,509.123,2303.773,300ZM2703.773,300,2512.894,109.123,2322.015,300l190.879,190.879Z" transform="translate(568.106 201.999)" fill="#fafcff"/></g></svg>