<svg xmlns="http://www.w3.org/2000/svg" viewBox="0 0 480 480"><path d="M443.13,112.6l-90.32,56.65A132.38,132.38,0,0,1,373.33,240c0,73.52-59.81,133.33-133.33,133.33S106.67,313.52,106.67,240,166.48,106.67,240,106.67A53.34,53.34,0,0,0,240,0C107.45,0,0,107.45,0,240S107.45,480,240,480,480,372.55,480,240A238.49,238.49,0,0,0,443.13,112.6Z" style="fill:#1cead6"/><path d="M352.81,169.25a132.62,132.62,0,0,1,9.4,124h0L443.13,112.6Z" style="fill:#00b59f"/><path d="M288.67,116.17,202.3,202.53A53.34,53.34,0,1,0,277.74,278L439.56,116.17l3.57-3.57H292.25Z" style="fill:#fcee21"/></svg>