<svg xmlns="http://www.w3.org/2000/svg" viewBox="0 0 200 200">
  <g transform="translate(-818.2 -351.6)">
    <rect width="200" height="200" transform="translate(818.2 351.6)" fill="#2cc3ff"/>
    <path d="M1018.2,491.3l-63.7-20.2A147.434,147.434,0,0,0,969.7,430H929V415.9h50.3V408H929V384.2H912.4a6,6,0,0,0-6,5.9v17.8H858.6v7.9h47.8V430H866.5v7.9h78.7a144.849,144.849,0,0,1-10.9,26.8l-16.2-5.1s-22.2-7-42.2-7-43.6,9.3-43.6,35.6c0,25.1,27.2,35.6,44.4,35.6s38.3-9.8,51.1-20.7a66.829,66.829,0,0,0,5.7-4.9,93.609,93.609,0,0,0,8.6-9.2c18,8.1,32.3,15.2,32.3,15.2l43.7,19.5V491.3Zm-97.8-5.5s-21.5,24-47,24-32.8-15.9-31.9-25.3c.9-9.3,16.9-24.1,44.2-17.5,9.8,2.4,24.1,8,38.4,14.1-2.3,3.1-3.7,4.7-3.7,4.7Z" fill="#f9f9fa"/>
  </g>
</svg>
