<svg xmlns="http://www.w3.org/2000/svg" viewBox="0 0 200 200">
  <rect width="200" height="200" fill="#92e5ff"/>
  <g>
    <path d="M141.6,56H88.8a7.732,7.732,0,0,0-7.6,6.5L63,176.5a7.667,7.667,0,0,0,7.6,8.9H92.3a7.732,7.732,0,0,0,7.6-6.5l5.7-35.7a7.732,7.732,0,0,1,7.6-6.5h17.7a38.468,38.468,0,0,0,38-32.4l2.2-13.8A29.813,29.813,0,0,0,141.6,56Z" fill="#009de2"/>
    <path d="M121.6,16.6H57.7a7.732,7.732,0,0,0-7.6,6.5L28.6,156.8a7.667,7.667,0,0,0,7.6,8.9H58a7.732,7.732,0,0,0,7.6-6.5L72.5,116a7.732,7.732,0,0,1,7.6-6.5H105a51.229,51.229,0,0,0,50.5-43.1l1.4-8.4A35.746,35.746,0,0,0,121.6,16.6Z" fill="#113984"/>
    <path d="M141.6,56H88.8a7.732,7.732,0,0,0-7.6,6.5l-8.5,52.8a7.74,7.74,0,0,1,7.5-5.7h24.9a51.229,51.229,0,0,0,50.5-43.1l1-6.5A30.258,30.258,0,0,0,141.6,56Z" fill="#182c71"/>
  </g>
</svg>
