<svg xmlns="http://www.w3.org/2000/svg" viewBox="0 0 200 200">
  <g transform="translate(-240.2)">
    <rect width="200" height="200" transform="translate(240.2)" fill="#4758a9"/>
    <path d="M308.5,154.2H259.4a7.305,7.305,0,0,1-7.1-9l22.3-93.8a7.276,7.276,0,0,1,7.1-5.6h49.1a7.305,7.305,0,0,1,7.1,9l-22.3,93.8A7.276,7.276,0,0,1,308.5,154.2Z" fill="#ed5565"/>
    <path d="M353.5,154.2H304.4a7.305,7.305,0,0,1-7.1-9l22.3-93.8a7.276,7.276,0,0,1,7.1-5.6h49.1a7.305,7.305,0,0,1,7.1,9l-22.3,93.8A7.193,7.193,0,0,1,353.5,154.2Z" fill="#4758a9"/>
    <path d="M398.6,154.2H349.5a7.305,7.305,0,0,1-7.1-9l22.3-93.8a7.276,7.276,0,0,1,7.1-5.6h49.1a7.305,7.305,0,0,1,7.1,9l-22.3,93.8A7.193,7.193,0,0,1,398.6,154.2Z" fill="#52c162"/>
    <path d="M377.1,123.9h-1.4l5.1-17h1.7l.5-1.7.1,1.9c-.1,1.2.9,2.3,3.4,2.1h2.9l1-3.3h-1.1c-.6,0-.9-.2-.9-.5l-.1-2H383c-1.7,0-6.9.2-7.9.4a8.064,8.064,0,0,0-2.6,1.3l.5-1.8h-5l-1,3.5-5.2,17.3h-1l-1,3.3h10l-.3,1.1h4.9l.3-1.1h1.4Zm-6.2,0h-4l1.2-3.8h4Zm2.2-7.3s-1.2.2-2.1.3a14.579,14.579,0,0,0-2.3,1l1.4-4.5h4Zm0-6.3a18.146,18.146,0,0,0-2.3.9l1.3-4.3h4l-1,3.2A5.617,5.617,0,0,0,373.1,110.3Zm8.4-.2h16l-1,3.3h-5.3l-.8,2.7h5.4l-.9,2.9h-5.8l-1,1.2h2.4l.6,3.7a4.537,4.537,0,0,0,.2.8,3.265,3.265,0,0,0,1.2.2h.7l-1.1,3.6h-1.8a7.173,7.173,0,0,1-1.3-.1c-.5,0-.9-.4-1.3-.5a1.906,1.906,0,0,1-.9-1.3l-.6-3.7-2.6,3.6a4.577,4.577,0,0,1-3.9,2H376l1-3.2h1.4a2.368,2.368,0,0,0,1-.3,1.68,1.68,0,0,0,.8-.7l3.8-5.4h-5.1l.9-2.9h5.8l.8-2.7h-5.7Zm-47.6,15.1,2.8-.4-1.1,3.7h-6.2a6.753,6.753,0,0,1-1.4-.2,1.834,1.834,0,0,1-1-.7c-.2-.4-.6-.7-.3-1.4l1.8-5.9h-3.1l1-3.4h3.1l.8-2.7h-3l1-3.2h13.5l-1,3.2h-5.4l-.8,2.7h5.5l-1,3.3h-5.5l-1.3,4.4C331.9,125.2,333.4,125.2,333.9,125.2Zm4.3-21.8-1,1.8h5.5l-1,3.4h-7.5l-.8.7c-.3.3-.5.2-.9.4a5.6,5.6,0,0,1-2.5.6h-2.4l1-3.2h.7a2.872,2.872,0,0,0,1.2-.2,3.064,3.064,0,0,0,.8-1l1.4-2.5h5.5Zm5.6,21.3c-.1-.2,0-.5.2-1.2l2.1-6.8h7.3a13.523,13.523,0,0,0,2.3-.1,9.416,9.416,0,0,0,1.8-.6,3.064,3.064,0,0,0,1.3-1.2,11.819,11.819,0,0,0,1.3-2.9l2.6-8.6h-7.6s-2.3.4-3.4.7a13.533,13.533,0,0,0-2.5,1.6l.7-2.4h-4.7L338.6,125a10.144,10.144,0,0,0-.4,1.8c0,.4.5.8.8,1.1a2.544,2.544,0,0,0,1.5.3,17.831,17.831,0,0,0,2.6.1h3.6l1.1-3.7-3.2.3A.568.568,0,0,1,343.8,124.7Zm5.1-17.7h7.8l-.6,1.8s-3.7,0-4.3.1a8.243,8.243,0,0,0-4.1,1.8Zm-1.5,5.1h7.7l-.5,1.5a2.448,2.448,0,0,0-1,0h-6.7Zm7.8,5.2h3.6l-.4,2.1a4.813,4.813,0,0,1-.8,1.6,3.453,3.453,0,0,1-2.5.9l-2.6.1v2.3c0,.7.1.6.2.7s.2.2.3.2h.8l2.5-.1-1,3.4h-2.9c-2,0-3.5,0-4-.4a1.093,1.093,0,0,1-.5-1.3l.2-9.1h4.6l-.1,1.9h1.1a1.719,1.719,0,0,0,.8-.1,1.069,1.069,0,0,0,.3-.5ZM299.7,71.8c-.5,1.7-3.7,14.5-3.7,14.5l-.4,1.4c-.8,2.7-1.6,5.7-4.9,7.6a14.742,14.742,0,0,1-7.6,1.8c-2.3,0-6.4-.4-7.8-2.9a5.2,5.2,0,0,1-.7-2.9l.5-3.8.3-1.2,3.1-13.9s.2-.8.2-.9c.1.1,1.1.1,7.1.1v.2c-.6,1.6-3.6,13.9-3.6,13.9l-.6,3.7V90a2.9,2.9,0,0,0,3.2,2.8,4.887,4.887,0,0,0,3.1-1.1c1.5-1.3,2-3.2,2.6-5.9,0,0,2.9-13.5,3.1-14.3a55.542,55.542,0,0,0,6,.1C299.7,71.7,299.7,71.7,299.7,71.8Zm13.8,11.8c.5,1.2.2,2.7-.5,5.6l-.3,1.5c-.7,3.2-.8,3.8-1.2,6.1l-.2.2c-2.1,0-2.9,0-5.3.1l-.1-.2c.2-.9.5-1.9.7-2.8l.3-1.3c.5-2,.9-4.3,1-5.1,0-.4.2-1.5-1-1.5a3.675,3.675,0,0,0-1.6.5c-.3,1.1-.9,4.1-1.2,5.4-.6,2.9-.7,3.2-.9,4.6l-.2.2c-2.2,0-2.9,0-5.5.1l-.1-.2,1.2-5.1a68.176,68.176,0,0,0,1.6-8.8l.2-.1a45.772,45.772,0,0,0,5.7-1l.2.3-.4,1.5c.4-.3.9-.5,1.3-.8a8.6,8.6,0,0,1,3.4-.8A2.832,2.832,0,0,1,313.5,83.6Zm9.1,1.5v.1c-.2,1-.5,2-.7,3s-.5,2-.7,3c-.5,2.1-.7,2.9-.8,3.5-.1.5-.1.8-.3,1.9l-.1.1-.1.1H317c-.8,0-1.6,0-2.8.1l-.1-.1-.1-.1a9.622,9.622,0,0,1,.7-2.1,11.926,11.926,0,0,0,.6-2.1c.4-1.6.6-2.8.8-3.8s.3-1.8.4-2.7l.1-.1.1-.1c1.3-.2,2.1-.3,2.9-.4s1.7-.3,3-.5Zm7.2,12.1a9.407,9.407,0,0,0,6.8-2.6,11.947,11.947,0,0,0,2.3-5c.7-3.3.2-4.8-.6-5.7-1.1-1.4-3.1-1.9-5.1-1.9a9.361,9.361,0,0,0-6.4,2.2,10.037,10.037,0,0,0-2.8,5.5c-.5,2-1,5.6,2.3,6.9A8.909,8.909,0,0,0,329.8,97.2Zm-.2-7.3c.6-2.5,1.2-4.5,2.9-4.5,1.3,0,1.4,1.5.8,4a13.2,13.2,0,0,1-1.2,3.5,2.039,2.039,0,0,1-1.6,1c-.2,0-1.2,0-1.2-1.6A7.161,7.161,0,0,1,329.6,89.9Zm47.5.1c-.5,2-1,5.6,2.3,6.9a6.144,6.144,0,0,0,2.9.5,5.52,5.52,0,0,0,2.8-1.3,2.92,2.92,0,0,0-.2.9l.2.2c2.4-.1,3.1-.1,5.7-.1l.2-.1c.4-2.2.7-4.3,1.7-8.6.5-2,.9-4,1.4-6l-.1-.2c-2.6.5-3.3.6-5.9,1l-.2.2c0,.2-.1.4-.1.6a3.671,3.671,0,0,0-1.9-1.5c-1.1-.4-3.8.1-6.1,2.2A11.655,11.655,0,0,0,377.1,90Zm5.6.2c.6-2.4,1.2-4.5,2.9-4.5,1.1,0,1.6,1,1.5,2.7-.1.4-.2.8-.3,1.3a14.19,14.19,0,0,0-.5,2.2c-.2.5-.4.9-.6,1.3a2.989,2.989,0,0,1-2.1,1c-.2,0-1.2,0-1.2-1.5A10.074,10.074,0,0,1,382.7,90.2ZM339.5,97l-.1-.2,1.2-5.1c1-4.7,1.3-6.4,1.6-8.8l.2-.1a42.789,42.789,0,0,0,5.7-1l.2.3-.4,1.5c.4-.3.9-.5,1.3-.8a8.6,8.6,0,0,1,3.4-.8,2.9,2.9,0,0,1,3,1.7c.5,1.2.2,2.7-.5,5.6l-.3,1.5c-.7,3.2-.8,3.8-1.2,6.1l-.3.2c-2.1,0-2.8,0-5.4.1l-.1-.2a28.637,28.637,0,0,1,.7-2.8l.3-1.3c.5-2,.9-4.3,1-5.1,0-.4.2-1.5-1-1.5a3.32,3.32,0,0,0-1.6.5c-.3,1.1-.9,4.1-1.2,5.4-.6,2.9-.6,3.2-.9,4.6l-.2.2A48.493,48.493,0,0,0,339.5,97Zm23.7,0c.2-.8,1.1-5.3,1.1-5.3s.8-3.3.8-3.4a2.043,2.043,0,0,1,.5-.5h.4c3.5,0,7.4,0,10.4-2.2a10.625,10.625,0,0,0,4.1-6.6,8.523,8.523,0,0,0,.3-2.3,4.7,4.7,0,0,0-.8-2.9c-1.6-2.2-4.7-2.2-8.3-2.2h-1.8a57.752,57.752,0,0,1-7.2-.1,8.144,8.144,0,0,0-.2.9L361,80s-3.9,16.2-4.1,17A55.993,55.993,0,0,1,363.2,97Zm3.1-13.5s1.8-7.6,1.7-7.6v-.7l.7.1s3.6.3,3.7.3c1.4.5,2,2,1.6,3.8a5.693,5.693,0,0,1-2.9,3.8,9.09,9.09,0,0,1-4.1.6h-1Zm33.5,19.7-.2.3h0l-2.1,3.5a4.137,4.137,0,0,1-3.8,2.1l-3.3-.1,1-3.2h.6a1.949,1.949,0,0,0,.8-.1.781.781,0,0,0,.4-.4l1.2-1.8h0c1.6-2.5,2-3.6,3.8-6.4-.3-3.2-.5-4.2-.7-6.3-.1-1.2-.3-2.5-.5-3.8a18.722,18.722,0,0,0-.6-3.8h0v-.3l.2-.2c2.5-.3,2.6-.4,5.3-.9l.2.2.4,7.1v.4c1.5-3.3,1.4-2.4,3.2-6.5h0v-.1l.2-.2c2.4-.3,2.9-.4,5.5-.9l.2.2C411.7,82.1,401.2,100.3,399.8,103.2ZM322.1,83.9a4.76,4.76,0,0,1-4.7.5c-1.2-.7-1-2.1.4-3a4.76,4.76,0,0,1,4.7-.5C323.7,81.6,323.5,82.9,322.1,83.9Z" fill="#fff"/>
  </g>
</svg>
