<svg xmlns="http://www.w3.org/2000/svg" viewBox="0 0 200 200">
  <g transform="translate(-272.7 -407.8)">
    <rect width="200" height="200" transform="translate(272.7 407.8)" fill="#4758a9"/>
    <path d="M305.8,560.2c33.8-15.3,81.4-29,144.1-13l1-17.6c-66.7-9.7-114,12.5-144.8,28.3l-.3,2.3Z" fill="#ffe35a" fill-rule="evenodd"/>
    <path d="M340.2,518.2l14.7-47.9h13l-14.8,47.9Z" fill="#fff" fill-rule="evenodd"/>
    <path d="M334.3,470.3,317,501.4l-1.5-31.1H292.8l-.3,2c7.4,0,9.2,1.3,10.2,6.9l4.3,38.9h13.5L348,470.3Z" fill="#fff" fill-rule="evenodd"/>
    <path d="M419.3,511.3l-3.1,6.9H402l25.7-47.8H445l4.3,47.8H435.8l-.5-6.9h-16Zm4.6-9.4h10.9l-1-22.4-9.9,22.4Z" fill="#fff" fill-rule="evenodd"/>
    <path d="M381.9,519.7c-9.4,0-15.5-3.1-20.1-5.6l6.4-9.4c3.8,2,7.1,4.6,14.3,4.6,2,0,4.3-.5,5.6-2.8,1.8-2.8-.5-4.6-5.3-7.6l-2.8-1.5c-7.6-5.1-10.9-10.2-7.4-18.6,2.5-5.3,8.4-9.4,18.3-9.4A29.968,29.968,0,0,1,408,475l-6.9,8.4c-3.8-3.1-6.9-4.3-10.4-4.3-2.8,0-4.8,1-5.6,2.5-1.3,2.5.3,4.3,4.6,6.9l2.8,1.8c9.4,5.9,11.5,11.7,9.2,17.6-4,9.5-11.9,11.8-19.8,11.8Z" fill="#fff" fill-rule="evenodd"/>
  </g>
</svg>
