<svg xmlns="http://www.w3.org/2000/svg" viewBox="0 0 200 200">
  <g transform="translate(0.577 0.744)">
    <rect width="200" height="200" transform="translate(-0.577 -0.744)" fill="#52c162"/>
    <g>
      <path d="M99.423,32.493c-44.35,0-80.3,29.891-80.3,66.763,0,14.988,5.94,28.822,15.97,39.964l-6.118,22.989a3.024,3.024,0,0,0,4.2,3.519l22.473-10.5a91.975,91.975,0,0,0,43.776,10.788c44.35,0,80.3-29.891,80.3-66.763S143.773,32.493,99.423,32.493Z" fill="#fff" fill-rule="evenodd"/>
      <path d="M167.54,63.9,80.5,102.388a2.77,2.77,0,0,1-2.779-.316l-20.044-15a2.769,2.769,0,0,0-4.152,3.424l17.532,36.215a2.769,2.769,0,0,0,3.87,1.195l97.734-56.043A63.828,63.828,0,0,0,167.54,63.9Z" fill="#52c162" fill-rule="evenodd"/>
    </g>
  </g>
</svg>
