<svg xmlns="http://www.w3.org/2000/svg" viewBox="0 0 310.3 310.3"><path d="M279.2,62h0l-35,26.3c14.5,19.2,22.3,42.4,22.3,66.9s-11.6,57.7-32.6,78.7c-21,21-49,32.6-78.7,32.6s-57.7-11.6-78.7-32.6c-21-21-32.6-49-32.6-78.7s11.6-57.7,32.6-78.7c21-21,49-32.6,78.7-32.6V0c-39.7,0-79.4,15.1-109.7,45.4-60.6,60.6-60.6,158.8,0,219.4,30.3,30.3,70,45.4,109.7,45.4s79.4-15.1,109.7-45.4c55.3-55.3,60.1-142.1,14.4-202.8Z" style="fill: #6c62f9;"/><path d="M244.2,88.3c6.3,8.4,11.4,17.5,15.1,27.2l20-53.5-35,26.3Z" style="fill: #3a3acc;"/><path d="M155.1,155.1l15.4,15.4,108.7-108.5h-62.1c0-.1-77.6,77.5-77.6,77.5,0,0,0,0,0,0l15.6,15.6Z" style="fill: #fc0;"/></svg>